<mxfile host="Electron" agent="Mozilla/5.0 (Windows NT 10.0; Win64; x64) AppleWebKit/537.36 (KHTML, like Gecko) draw.io/24.7.5 Chrome/126.0.6478.183 Electron/31.3.0 Safari/537.36" version="24.7.5">
  <diagram name="第 1 页" id="CCM9EwrkLbbfMSeU_tbU">
    <mxGraphModel dx="2174" dy="1007" grid="1" gridSize="10" guides="1" tooltips="1" connect="1" arrows="1" fold="1" page="1" pageScale="1" pageWidth="827" pageHeight="1169" math="0" shadow="0">
      <root>
        <mxCell id="0" />
        <mxCell id="1" parent="0" />
        <mxCell id="Oj_q2JmhCiOrsYWocLNv-73" value="" style="rounded=0;whiteSpace=wrap;html=1;" parent="1" vertex="1">
          <mxGeometry x="-150" y="560" width="190" height="110" as="geometry" />
        </mxCell>
        <mxCell id="Oj_q2JmhCiOrsYWocLNv-70" value="" style="rounded=1;whiteSpace=wrap;html=1;" parent="1" vertex="1">
          <mxGeometry x="450" y="390" width="200" height="160" as="geometry" />
        </mxCell>
        <mxCell id="Oj_q2JmhCiOrsYWocLNv-53" value="" style="rounded=0;whiteSpace=wrap;html=1;" parent="1" vertex="1">
          <mxGeometry x="-280" y="352" width="120" height="138" as="geometry" />
        </mxCell>
        <mxCell id="Oj_q2JmhCiOrsYWocLNv-44" value="&lt;b style=&quot;font-size: 15px;&quot;&gt;Load process stats from PCB_2&lt;/b&gt;" style="rounded=0;whiteSpace=wrap;html=1;fillColor=#dae8fc;strokeColor=#6c8ebf;" parent="1" vertex="1">
          <mxGeometry x="460" y="490" width="180" height="47" as="geometry" />
        </mxCell>
        <mxCell id="Oj_q2JmhCiOrsYWocLNv-43" value="&lt;b style=&quot;font-size: 15px;&quot;&gt;Save process stats into PCB_1&lt;/b&gt;" style="rounded=0;whiteSpace=wrap;html=1;fillColor=#dae8fc;strokeColor=#6c8ebf;" parent="1" vertex="1">
          <mxGeometry x="460" y="433.5" width="180" height="47" as="geometry" />
        </mxCell>
        <mxCell id="Oj_q2JmhCiOrsYWocLNv-36" value="" style="rounded=0;whiteSpace=wrap;html=1;" parent="1" vertex="1">
          <mxGeometry x="660" y="607" width="210" height="130" as="geometry" />
        </mxCell>
        <mxCell id="Oj_q2JmhCiOrsYWocLNv-35" value="" style="rounded=0;whiteSpace=wrap;html=1;" parent="1" vertex="1">
          <mxGeometry x="660" y="390" width="210" height="130" as="geometry" />
        </mxCell>
        <mxCell id="Oj_q2JmhCiOrsYWocLNv-37" style="edgeStyle=orthogonalEdgeStyle;rounded=0;orthogonalLoop=1;jettySize=auto;html=1;exitX=0;exitY=0.5;exitDx=0;exitDy=0;entryX=1;entryY=0.25;entryDx=0;entryDy=0;elbow=vertical;curved=1;strokeWidth=2;strokeColor=#33FF33;flowAnimation=1;" parent="1" source="Oj_q2JmhCiOrsYWocLNv-34" target="Oj_q2JmhCiOrsYWocLNv-18" edge="1">
          <mxGeometry relative="1" as="geometry" />
        </mxCell>
        <mxCell id="Oj_q2JmhCiOrsYWocLNv-34" value="" style="rounded=0;whiteSpace=wrap;html=1;" parent="1" vertex="1">
          <mxGeometry x="660" y="183.5" width="210" height="130" as="geometry" />
        </mxCell>
        <mxCell id="Oj_q2JmhCiOrsYWocLNv-12" value="" style="rounded=0;whiteSpace=wrap;html=1;fillColor=#bac8d3;strokeColor=#23445d;" parent="1" vertex="1">
          <mxGeometry x="760" y="190" width="100" height="117" as="geometry" />
        </mxCell>
        <mxCell id="Oj_q2JmhCiOrsYWocLNv-1" value="&lt;font style=&quot;font-size: 15px;&quot;&gt;&lt;b&gt;Process 1&lt;/b&gt;&lt;/font&gt;" style="rounded=0;whiteSpace=wrap;html=1;fillColor=#d5e8d4;strokeColor=#82b366;" parent="1" vertex="1">
          <mxGeometry x="120" y="130" width="120" height="60" as="geometry" />
        </mxCell>
        <mxCell id="Oj_q2JmhCiOrsYWocLNv-2" value="&lt;font style=&quot;font-size: 15px;&quot;&gt;&lt;b&gt;Process 2&lt;/b&gt;&lt;/font&gt;" style="rounded=0;whiteSpace=wrap;html=1;fillColor=#fff2cc;strokeColor=#d6b656;" parent="1" vertex="1">
          <mxGeometry x="284" y="130" width="120" height="60" as="geometry" />
        </mxCell>
        <mxCell id="Oj_q2JmhCiOrsYWocLNv-3" value="&lt;font style=&quot;font-size: 15px;&quot;&gt;&lt;b&gt;OS&lt;/b&gt;&lt;/font&gt;" style="rounded=0;whiteSpace=wrap;html=1;fillColor=#dae8fc;strokeColor=#6c8ebf;" parent="1" vertex="1">
          <mxGeometry x="450" y="130" width="120" height="60" as="geometry" />
        </mxCell>
        <mxCell id="Oj_q2JmhCiOrsYWocLNv-5" value="" style="shape=flexArrow;endArrow=classic;html=1;rounded=0;fillColor=#f8cecc;strokeColor=#b85450;flowAnimation=1;" parent="1" edge="1">
          <mxGeometry width="50" height="50" relative="1" as="geometry">
            <mxPoint x="179.5" y="200" as="sourcePoint" />
            <mxPoint x="179.5" y="290" as="targetPoint" />
          </mxGeometry>
        </mxCell>
        <mxCell id="Oj_q2JmhCiOrsYWocLNv-6" value="&lt;font style=&quot;font-size: 20px;&quot;&gt;Running&lt;/font&gt;" style="text;html=1;align=center;verticalAlign=middle;resizable=0;points=[];autosize=1;strokeColor=none;fillColor=none;" parent="1" vertex="1">
          <mxGeometry x="75" y="223" width="100" height="40" as="geometry" />
        </mxCell>
        <mxCell id="Oj_q2JmhCiOrsYWocLNv-7" value="" style="shape=link;html=1;rounded=0;" parent="1" edge="1">
          <mxGeometry width="100" relative="1" as="geometry">
            <mxPoint x="130" y="310" as="sourcePoint" />
            <mxPoint x="610" y="310" as="targetPoint" />
          </mxGeometry>
        </mxCell>
        <mxCell id="Oj_q2JmhCiOrsYWocLNv-8" value="&lt;font color=&quot;#ff0000&quot; style=&quot;font-size: 15px;&quot;&gt;&lt;b&gt;System Interrupt&lt;/b&gt;&lt;/font&gt;" style="text;html=1;align=center;verticalAlign=middle;resizable=0;points=[];autosize=1;strokeColor=none;fillColor=none;" parent="1" vertex="1">
          <mxGeometry x="-5" y="300" width="140" height="30" as="geometry" />
        </mxCell>
        <mxCell id="Oj_q2JmhCiOrsYWocLNv-9" value="&lt;font style=&quot;font-size: 16px;&quot;&gt;CPU&lt;/font&gt;" style="rounded=1;whiteSpace=wrap;html=1;fillColor=#d5e8d4;strokeColor=#82b366;" parent="1" vertex="1">
          <mxGeometry x="680" y="212" width="70" height="60" as="geometry" />
        </mxCell>
        <mxCell id="Oj_q2JmhCiOrsYWocLNv-10" value="Register" style="rounded=0;whiteSpace=wrap;html=1;fillColor=#d5e8d4;strokeColor=#82b366;" parent="1" vertex="1">
          <mxGeometry x="770" y="200" width="80" height="40" as="geometry" />
        </mxCell>
        <mxCell id="Oj_q2JmhCiOrsYWocLNv-11" value="PC" style="rounded=0;whiteSpace=wrap;html=1;fillColor=#d5e8d4;strokeColor=#82b366;" parent="1" vertex="1">
          <mxGeometry x="770" y="255" width="50" height="42" as="geometry" />
        </mxCell>
        <mxCell id="Oj_q2JmhCiOrsYWocLNv-14" value="" style="rounded=0;whiteSpace=wrap;html=1;fillColor=#bac8d3;strokeColor=#23445d;" parent="1" vertex="1">
          <mxGeometry x="760" y="395" width="100" height="117" as="geometry" />
        </mxCell>
        <mxCell id="Oj_q2JmhCiOrsYWocLNv-15" value="&lt;font style=&quot;font-size: 16px;&quot;&gt;CPU&lt;/font&gt;" style="rounded=1;whiteSpace=wrap;html=1;fillColor=#b1ddf0;strokeColor=#10739e;" parent="1" vertex="1">
          <mxGeometry x="680" y="417" width="70" height="60" as="geometry" />
        </mxCell>
        <mxCell id="Oj_q2JmhCiOrsYWocLNv-16" value="Register" style="rounded=0;whiteSpace=wrap;html=1;fillColor=#b1ddf0;strokeColor=#10739e;" parent="1" vertex="1">
          <mxGeometry x="770" y="405" width="80" height="40" as="geometry" />
        </mxCell>
        <mxCell id="Oj_q2JmhCiOrsYWocLNv-17" value="PC" style="rounded=0;whiteSpace=wrap;html=1;fillColor=#b1ddf0;strokeColor=#10739e;" parent="1" vertex="1">
          <mxGeometry x="770" y="460" width="50" height="42" as="geometry" />
        </mxCell>
        <mxCell id="Oj_q2JmhCiOrsYWocLNv-22" style="edgeStyle=orthogonalEdgeStyle;rounded=0;orthogonalLoop=1;jettySize=auto;html=1;exitX=0;exitY=0.5;exitDx=0;exitDy=0;strokeColor=#00CC00;strokeWidth=3;flowAnimation=1;" parent="1" source="Oj_q2JmhCiOrsYWocLNv-18" edge="1">
          <mxGeometry relative="1" as="geometry">
            <mxPoint x="-30" y="392" as="targetPoint" />
            <Array as="points">
              <mxPoint x="50" y="343" />
              <mxPoint x="50" y="392" />
            </Array>
          </mxGeometry>
        </mxCell>
        <mxCell id="Oj_q2JmhCiOrsYWocLNv-80" style="edgeStyle=orthogonalEdgeStyle;rounded=0;orthogonalLoop=1;jettySize=auto;html=1;exitX=0;exitY=0.5;exitDx=0;exitDy=0;entryX=1;entryY=0.5;entryDx=0;entryDy=0;strokeWidth=3;strokeColor=#00CC00;flowAnimation=1;" parent="1" source="Oj_q2JmhCiOrsYWocLNv-18" target="Oj_q2JmhCiOrsYWocLNv-77" edge="1">
          <mxGeometry relative="1" as="geometry" />
        </mxCell>
        <mxCell id="Oj_q2JmhCiOrsYWocLNv-18" value="PCB_1" style="rounded=0;whiteSpace=wrap;html=1;fillColor=#d5e8d4;strokeColor=#82b366;" parent="1" vertex="1">
          <mxGeometry x="155" y="323" width="50" height="40" as="geometry" />
        </mxCell>
        <mxCell id="Oj_q2JmhCiOrsYWocLNv-56" style="edgeStyle=orthogonalEdgeStyle;rounded=0;orthogonalLoop=1;jettySize=auto;html=1;strokeColor=#007FFF;strokeWidth=3;flowAnimation=1;" parent="1" target="Oj_q2JmhCiOrsYWocLNv-55" edge="1">
          <mxGeometry relative="1" as="geometry">
            <mxPoint x="-30" y="392" as="sourcePoint" />
          </mxGeometry>
        </mxCell>
        <mxCell id="Oj_q2JmhCiOrsYWocLNv-26" style="edgeStyle=orthogonalEdgeStyle;rounded=0;orthogonalLoop=1;jettySize=auto;html=1;exitX=1;exitY=0.5;exitDx=0;exitDy=0;entryX=0;entryY=0.5;entryDx=0;entryDy=0;strokeColor=#D9CDAD;strokeWidth=3;flowAnimation=1;" parent="1" target="Oj_q2JmhCiOrsYWocLNv-25" edge="1">
          <mxGeometry relative="1" as="geometry">
            <mxPoint x="-9" y="443" as="sourcePoint" />
            <Array as="points">
              <mxPoint x="50" y="443" />
              <mxPoint x="50" y="540" />
            </Array>
          </mxGeometry>
        </mxCell>
        <mxCell id="Oj_q2JmhCiOrsYWocLNv-38" style="edgeStyle=orthogonalEdgeStyle;rounded=0;orthogonalLoop=1;jettySize=auto;html=1;exitX=1;exitY=0.75;exitDx=0;exitDy=0;entryX=0;entryY=0.5;entryDx=0;entryDy=0;curved=1;strokeWidth=2;strokeColor=#CCCC00;flowAnimation=1;" parent="1" source="Oj_q2JmhCiOrsYWocLNv-25" target="Oj_q2JmhCiOrsYWocLNv-36" edge="1">
          <mxGeometry relative="1" as="geometry">
            <Array as="points">
              <mxPoint x="450" y="550" />
              <mxPoint x="450" y="672" />
            </Array>
          </mxGeometry>
        </mxCell>
        <mxCell id="Oj_q2JmhCiOrsYWocLNv-25" value="PCB_2" style="rounded=0;whiteSpace=wrap;html=1;fillColor=#fff2cc;strokeColor=#d6b656;" parent="1" vertex="1">
          <mxGeometry x="320" y="520" width="50" height="40" as="geometry" />
        </mxCell>
        <mxCell id="Oj_q2JmhCiOrsYWocLNv-28" value="" style="shape=link;html=1;rounded=0;" parent="1" edge="1">
          <mxGeometry width="100" relative="1" as="geometry">
            <mxPoint x="140" y="595" as="sourcePoint" />
            <mxPoint x="620" y="595" as="targetPoint" />
          </mxGeometry>
        </mxCell>
        <mxCell id="Oj_q2JmhCiOrsYWocLNv-29" value="" style="shape=flexArrow;endArrow=classic;html=1;rounded=0;fillColor=#f8cecc;strokeColor=#b85450;flowAnimation=1;" parent="1" edge="1">
          <mxGeometry width="50" height="50" relative="1" as="geometry">
            <mxPoint x="343.5" y="619.5" as="sourcePoint" />
            <mxPoint x="343.5" y="709.5" as="targetPoint" />
          </mxGeometry>
        </mxCell>
        <mxCell id="Oj_q2JmhCiOrsYWocLNv-30" value="" style="rounded=0;whiteSpace=wrap;html=1;fillColor=#bac8d3;strokeColor=#23445d;" parent="1" vertex="1">
          <mxGeometry x="760" y="612" width="100" height="117" as="geometry" />
        </mxCell>
        <mxCell id="Oj_q2JmhCiOrsYWocLNv-31" value="&lt;font style=&quot;font-size: 16px;&quot;&gt;CPU&lt;/font&gt;" style="rounded=1;whiteSpace=wrap;html=1;fillColor=#fff2cc;strokeColor=#d6b656;" parent="1" vertex="1">
          <mxGeometry x="680" y="634" width="70" height="60" as="geometry" />
        </mxCell>
        <mxCell id="Oj_q2JmhCiOrsYWocLNv-32" value="Register" style="rounded=0;whiteSpace=wrap;html=1;fillColor=#fff2cc;strokeColor=#d6b656;" parent="1" vertex="1">
          <mxGeometry x="770" y="622" width="80" height="40" as="geometry" />
        </mxCell>
        <mxCell id="Oj_q2JmhCiOrsYWocLNv-33" value="PC" style="rounded=0;whiteSpace=wrap;html=1;fillColor=#fff2cc;strokeColor=#d6b656;" parent="1" vertex="1">
          <mxGeometry x="770" y="677" width="50" height="42" as="geometry" />
        </mxCell>
        <mxCell id="Oj_q2JmhCiOrsYWocLNv-41" value="&lt;font style=&quot;font-size: 20px;&quot;&gt;Running&lt;/font&gt;" style="text;html=1;align=center;verticalAlign=middle;resizable=0;points=[];autosize=1;strokeColor=none;fillColor=none;" parent="1" vertex="1">
          <mxGeometry x="294" y="726.5" width="100" height="40" as="geometry" />
        </mxCell>
        <mxCell id="Oj_q2JmhCiOrsYWocLNv-42" value="&lt;font style=&quot;font-size: 20px;&quot;&gt;Kernel_Stack&lt;/font&gt;" style="text;html=1;align=center;verticalAlign=middle;whiteSpace=wrap;rounded=0;" parent="1" vertex="1">
          <mxGeometry x="-116" y="520" width="116" height="30" as="geometry" />
        </mxCell>
        <mxCell id="Oj_q2JmhCiOrsYWocLNv-47" value="" style="endArrow=none;html=1;rounded=0;strokeWidth=3;strokeColor=#FF33FF;" parent="1" edge="1">
          <mxGeometry width="50" height="50" relative="1" as="geometry">
            <mxPoint x="420" y="730" as="sourcePoint" />
            <mxPoint x="420" y="70" as="targetPoint" />
          </mxGeometry>
        </mxCell>
        <mxCell id="Oj_q2JmhCiOrsYWocLNv-48" value="&lt;font style=&quot;font-size: 20px;&quot;&gt;User mode&lt;/font&gt;" style="text;html=1;align=center;verticalAlign=middle;whiteSpace=wrap;rounded=0;" parent="1" vertex="1">
          <mxGeometry x="205" y="70" width="126" height="30" as="geometry" />
        </mxCell>
        <mxCell id="Oj_q2JmhCiOrsYWocLNv-49" value="&lt;font style=&quot;font-size: 20px;&quot;&gt;Kernel mode&lt;/font&gt;" style="text;html=1;align=center;verticalAlign=middle;whiteSpace=wrap;rounded=0;" parent="1" vertex="1">
          <mxGeometry x="455" y="70" width="126" height="30" as="geometry" />
        </mxCell>
        <mxCell id="Oj_q2JmhCiOrsYWocLNv-50" value="Handle the trap" style="rounded=0;whiteSpace=wrap;html=1;fillColor=#dae8fc;strokeColor=#6c8ebf;" parent="1" vertex="1">
          <mxGeometry x="459" y="350" width="120" height="29" as="geometry" />
        </mxCell>
        <mxCell id="Oj_q2JmhCiOrsYWocLNv-51" value="" style="shape=flexArrow;endArrow=classic;html=1;rounded=0;fillColor=#e1d5e7;strokeColor=#9673a6;flowAnimation=1;" parent="1" edge="1">
          <mxGeometry width="50" height="50" relative="1" as="geometry">
            <mxPoint x="260" y="341" as="sourcePoint" />
            <mxPoint x="440" y="361" as="targetPoint" />
          </mxGeometry>
        </mxCell>
        <mxCell id="Oj_q2JmhCiOrsYWocLNv-52" value="" style="shape=flexArrow;endArrow=classic;html=1;rounded=0;fillColor=#e1d5e7;strokeColor=#9673a6;flowAnimation=1;" parent="1" edge="1">
          <mxGeometry width="50" height="50" relative="1" as="geometry">
            <mxPoint x="450" y="570" as="sourcePoint" />
            <mxPoint x="350" y="610" as="targetPoint" />
          </mxGeometry>
        </mxCell>
        <mxCell id="Oj_q2JmhCiOrsYWocLNv-54" value="&lt;span style=&quot;color: rgb(0, 0, 0); font-family: Helvetica; font-size: 20px; font-style: normal; font-variant-ligatures: normal; font-variant-caps: normal; font-weight: 400; letter-spacing: normal; orphans: 2; text-align: center; text-indent: 0px; text-transform: none; widows: 2; word-spacing: 0px; -webkit-text-stroke-width: 0px; white-space: normal; background-color: rgb(251, 251, 251); text-decoration-thickness: initial; text-decoration-style: initial; text-decoration-color: initial; display: inline !important; float: none;&quot;&gt;Process Table&lt;/span&gt;" style="text;whiteSpace=wrap;html=1;" parent="1" vertex="1">
          <mxGeometry x="-286" y="313" width="130" height="33" as="geometry" />
        </mxCell>
        <mxCell id="Oj_q2JmhCiOrsYWocLNv-55" value="PCB_1" style="rounded=0;whiteSpace=wrap;html=1;fillColor=#d5e8d4;strokeColor=#82b366;" parent="1" vertex="1">
          <mxGeometry x="-250" y="372" width="50" height="40" as="geometry" />
        </mxCell>
        <mxCell id="Oj_q2JmhCiOrsYWocLNv-58" style="edgeStyle=orthogonalEdgeStyle;rounded=0;orthogonalLoop=1;jettySize=auto;html=1;exitX=1;exitY=0.5;exitDx=0;exitDy=0;strokeColor=#007FFF;strokeWidth=3;flowAnimation=1;" parent="1" source="Oj_q2JmhCiOrsYWocLNv-57" edge="1">
          <mxGeometry relative="1" as="geometry">
            <mxPoint x="-10" y="443" as="targetPoint" />
          </mxGeometry>
        </mxCell>
        <mxCell id="Oj_q2JmhCiOrsYWocLNv-57" value="PCB_2" style="rounded=0;whiteSpace=wrap;html=1;fillColor=#fff2cc;strokeColor=#d6b656;" parent="1" vertex="1">
          <mxGeometry x="-250" y="423" width="50" height="40" as="geometry" />
        </mxCell>
        <mxCell id="Oj_q2JmhCiOrsYWocLNv-59" value="" style="shape=flexArrow;endArrow=classic;html=1;rounded=0;fillColor=#d5e8d4;strokeColor=#82b366;" parent="1" edge="1">
          <mxGeometry width="50" height="50" relative="1" as="geometry">
            <mxPoint x="-266" y="592" as="sourcePoint" />
            <mxPoint x="-153" y="590" as="targetPoint" />
          </mxGeometry>
        </mxCell>
        <mxCell id="Oj_q2JmhCiOrsYWocLNv-60" value="" style="shape=flexArrow;endArrow=classic;html=1;rounded=0;fillColor=#fff2cc;strokeColor=#82b366;" parent="1" edge="1">
          <mxGeometry width="50" height="50" relative="1" as="geometry">
            <mxPoint x="-263" y="640" as="sourcePoint" />
            <mxPoint x="-153" y="640" as="targetPoint" />
          </mxGeometry>
        </mxCell>
        <mxCell id="Oj_q2JmhCiOrsYWocLNv-61" value="&lt;font color=&quot;#ffff00&quot; style=&quot;font-size: 17px;&quot;&gt;Switch Stack&lt;/font&gt;" style="rounded=0;whiteSpace=wrap;html=1;fillColor=#007fff;strokeColor=#6c8ebf;" parent="1" vertex="1">
          <mxGeometry x="-276" y="669" width="120" height="60" as="geometry" />
        </mxCell>
        <mxCell id="Oj_q2JmhCiOrsYWocLNv-62" value=" return-from-trap" style="rounded=0;whiteSpace=wrap;html=1;fillColor=#dae8fc;strokeColor=#6c8ebf;" parent="1" vertex="1">
          <mxGeometry x="460" y="555" width="120" height="29" as="geometry" />
        </mxCell>
        <mxCell id="Oj_q2JmhCiOrsYWocLNv-63" value="" style="rounded=0;whiteSpace=wrap;html=1;fillColor=#f8cecc;strokeColor=#b85450;" parent="1" vertex="1">
          <mxGeometry x="340" y="70" width="30" height="30" as="geometry" />
        </mxCell>
        <mxCell id="Oj_q2JmhCiOrsYWocLNv-64" value="" style="rounded=0;whiteSpace=wrap;html=1;fillColor=#f8cecc;strokeColor=#b85450;" parent="1" vertex="1">
          <mxGeometry x="670" y="277" width="30" height="30" as="geometry" />
        </mxCell>
        <mxCell id="Oj_q2JmhCiOrsYWocLNv-65" value="" style="rounded=0;whiteSpace=wrap;html=1;fillColor=#f8cecc;strokeColor=#b85450;" parent="1" vertex="1">
          <mxGeometry x="670" y="699" width="30" height="30" as="geometry" />
        </mxCell>
        <mxCell id="Oj_q2JmhCiOrsYWocLNv-66" value="" style="rounded=0;whiteSpace=wrap;html=1;fillColor=#e1d5e7;strokeColor=#9673a6;" parent="1" vertex="1">
          <mxGeometry x="590" y="70" width="30" height="30" as="geometry" />
        </mxCell>
        <mxCell id="Oj_q2JmhCiOrsYWocLNv-68" value="" style="rounded=0;whiteSpace=wrap;html=1;fillColor=#e1d5e7;strokeColor=#9673a6;" parent="1" vertex="1">
          <mxGeometry x="670" y="482" width="30" height="30" as="geometry" />
        </mxCell>
        <mxCell id="Oj_q2JmhCiOrsYWocLNv-71" value="&lt;font style=&quot;font-size: 15px;&quot;&gt;Switch()&lt;/font&gt;" style="text;html=1;align=center;verticalAlign=middle;whiteSpace=wrap;rounded=0;" parent="1" vertex="1">
          <mxGeometry x="520" y="397" width="60" height="30" as="geometry" />
        </mxCell>
        <mxCell id="Oj_q2JmhCiOrsYWocLNv-75" value="Process 1" style="rounded=0;whiteSpace=wrap;html=1;fillColor=#d5e8d4;strokeColor=#82b366;" parent="1" vertex="1">
          <mxGeometry x="-134" y="572" width="74" height="40" as="geometry" />
        </mxCell>
        <mxCell id="Oj_q2JmhCiOrsYWocLNv-76" value="Process 2" style="rounded=0;whiteSpace=wrap;html=1;fillColor=#fff2cc;strokeColor=#d6b656;" parent="1" vertex="1">
          <mxGeometry x="-134" y="620" width="74" height="40" as="geometry" />
        </mxCell>
        <mxCell id="Oj_q2JmhCiOrsYWocLNv-77" value="Register" style="rounded=0;whiteSpace=wrap;html=1;fillColor=#d5e8d4;strokeColor=#82b366;" parent="1" vertex="1">
          <mxGeometry x="-56" y="572" width="80" height="40" as="geometry" />
        </mxCell>
        <mxCell id="Oj_q2JmhCiOrsYWocLNv-79" style="edgeStyle=orthogonalEdgeStyle;rounded=0;orthogonalLoop=1;jettySize=auto;html=1;exitX=1;exitY=0.5;exitDx=0;exitDy=0;entryX=0;entryY=0.5;entryDx=0;entryDy=0;strokeWidth=3;strokeColor=#CCCC00;flowAnimation=1;" parent="1" source="Oj_q2JmhCiOrsYWocLNv-78" target="Oj_q2JmhCiOrsYWocLNv-25" edge="1">
          <mxGeometry relative="1" as="geometry" />
        </mxCell>
        <mxCell id="Oj_q2JmhCiOrsYWocLNv-78" value="Register" style="rounded=0;whiteSpace=wrap;html=1;fillColor=#fff2cc;strokeColor=#d6b656;" parent="1" vertex="1">
          <mxGeometry x="-56" y="620" width="80" height="40" as="geometry" />
        </mxCell>
        <mxCell id="j-63-ht9azuOve6ZklXF-1" value="1" style="ellipse;whiteSpace=wrap;html=1;aspect=fixed;fillColor=#e51400;strokeColor=#B20000;fontColor=#ffffff;" parent="1" vertex="1">
          <mxGeometry x="-36" y="294" width="36" height="36" as="geometry" />
        </mxCell>
        <mxCell id="j-63-ht9azuOve6ZklXF-2" value="2" style="ellipse;whiteSpace=wrap;html=1;aspect=fixed;fillColor=#e51400;strokeColor=#B20000;fontColor=#ffffff;" parent="1" vertex="1">
          <mxGeometry x="99" y="397.5" width="36" height="36" as="geometry" />
        </mxCell>
        <mxCell id="j-63-ht9azuOve6ZklXF-3" value="3" style="ellipse;whiteSpace=wrap;html=1;aspect=fixed;fillColor=#e51400;strokeColor=#B20000;fontColor=#ffffff;" parent="1" vertex="1">
          <mxGeometry x="320" y="369" width="36" height="36" as="geometry" />
        </mxCell>
        <mxCell id="j-63-ht9azuOve6ZklXF-4" value="4" style="ellipse;whiteSpace=wrap;html=1;aspect=fixed;fillColor=#e51400;strokeColor=#B20000;fontColor=#ffffff;" parent="1" vertex="1">
          <mxGeometry x="590" y="394" width="36" height="36" as="geometry" />
        </mxCell>
        <mxCell id="j-63-ht9azuOve6ZklXF-5" value="5" style="ellipse;whiteSpace=wrap;html=1;aspect=fixed;fillColor=#e51400;strokeColor=#B20000;fontColor=#ffffff;" parent="1" vertex="1">
          <mxGeometry x="-115" y="352" width="36" height="36" as="geometry" />
        </mxCell>
        <mxCell id="j-63-ht9azuOve6ZklXF-6" value="6" style="ellipse;whiteSpace=wrap;html=1;aspect=fixed;fillColor=#e51400;strokeColor=#B20000;fontColor=#ffffff;" parent="1" vertex="1">
          <mxGeometry x="-110" y="452" width="36" height="36" as="geometry" />
        </mxCell>
        <mxCell id="j-63-ht9azuOve6ZklXF-8" value="7" style="ellipse;whiteSpace=wrap;html=1;aspect=fixed;fillColor=#e51400;strokeColor=#B20000;fontColor=#ffffff;" parent="1" vertex="1">
          <mxGeometry x="75" y="652.5" width="36" height="36" as="geometry" />
        </mxCell>
        <mxCell id="j-63-ht9azuOve6ZklXF-9" value="8" style="ellipse;whiteSpace=wrap;html=1;aspect=fixed;fillColor=#e51400;strokeColor=#B20000;fontColor=#ffffff;" parent="1" vertex="1">
          <mxGeometry x="590" y="548" width="36" height="36" as="geometry" />
        </mxCell>
        <mxCell id="j-63-ht9azuOve6ZklXF-10" value="9" style="ellipse;whiteSpace=wrap;html=1;aspect=fixed;fillColor=#e51400;strokeColor=#B20000;fontColor=#ffffff;" parent="1" vertex="1">
          <mxGeometry x="484" y="669" width="36" height="36" as="geometry" />
        </mxCell>
      </root>
    </mxGraphModel>
  </diagram>
</mxfile>
